<svg height="512pt" viewBox="0 -51 512 512" width="512pt" xmlns="http://www.w3.org/2000/svg"><path d="m388.050781 5h-32.753906c-11.878906 0-21.542969 9.5625-21.542969 21.316406v61.46875l75.835938 78.164063v-139.632813c.003906-11.753906-9.660156-21.316406-21.539063-21.316406zm0 0" fill="#2b4747"/><path d="m456.191406 212.5v182.5h-400.382812v-182.5l188.261718-192.878906c3.269532-3.339844 7.609376-5 11.929688-4.960938 4.21875.039063 8.429688 1.691406 11.621094 4.949219zm0 0" fill="#ffecd7"/><path d="m456.191406 212.5v182.5h-200.191406v-380.339844c4.21875.039063 8.429688 1.691406 11.621094 4.949219zm0 0" fill="#fdd7ae"/><path d="m202.128906 202.609375h-70.125c-13.261718 0-24.050781 10.792969-24.050781 24.054687v168.335938h118.226563v-168.335938c0-13.265624-10.789063-24.054687-24.050782-24.054687zm0 0" fill="#2a5959"/><path d="m137.953125 232.609375h58.226563v162.390625h-58.226563zm0 0" fill="#7cc8f0"/><path d="m512 395c0 8.28125-6.71875 15-15 15h-482c-8.28125 0-15-6.71875-15-15s6.71875-15 15-15h482c8.28125 0 15 6.71875 15 15zm0 0" fill="#54e360"/><path d="m507.449219 265.28125c-2.910157 2.828125-6.679688 4.238281-10.449219 4.238281-3.910156 0-7.820312-1.53125-10.761719-4.550781l-226.839843-233.570312c-1.1875-1.21875-2.636719-1.398438-3.398438-1.398438s-2.210938.179688-3.390625 1.398438l-226.847656 233.570312c-5.773438 5.941406-15.273438 6.082031-21.210938.3125-5.941406-5.78125-6.082031-15.269531-.3125-21.222656l226.839844-233.558594c6.582031-6.769531 15.433594-10.5 24.921875-10.5s18.339844 3.730469 24.921875 10.5l226.839844 233.558594c5.769531 5.953125 5.628906 15.441406-.3125 21.222656zm0 0" fill="#e56705"/><path d="m381.621094 202.609375h-70.125c-13.261719 0-24.050782 10.792969-24.050782 24.054687v99.285157c0 13.261719 10.789063 24.050781 24.050782 24.050781h70.125c13.261718 0 24.050781-10.789062 24.050781-24.050781v-99.285157c0-13.265624-10.789063-24.054687-24.050781-24.054687zm0 0" fill="#2b4747"/><path d="m301.230469 135.480469c0 24.96875-20.28125 45.300781-45.230469 45.378906h-.148438c-25.023437 0-45.382812-20.359375-45.382812-45.378906s20.359375-45.371094 45.382812-45.371094h.148438c24.949219.082031 45.230469 20.402344 45.230469 45.371094zm0 0" fill="#7cc8f0"/><g fill="#4bb9ec"><path d="m317.445312 282.304688h58.226563v37.695312h-58.226563zm0 0"/><path d="m317.445312 232.609375h58.226563v19.695313h-58.226563zm0 0"/><path d="m256 180.859375v-90.75c24.949219.082031 45.230469 20.402344 45.230469 45.371094s-20.28125 45.300781-45.230469 45.378906zm0 0"/></g><path d="m512 395c0 8.28125-6.71875 15-15 15h-241v-30h241c8.28125 0 15 6.71875 15 15zm0 0" fill="#00c200"/><path d="m259.398438 31.398438c-1.1875-1.21875-2.636719-1.398438-3.398438-1.398438v-30c9.488281 0 18.339844 3.730469 24.921875 10.5l226.839844 233.558594c5.769531 5.953125 5.628906 15.441406-.3125 21.222656-2.910157 2.828125-6.679688 4.238281-10.449219 4.238281-3.910156 0-7.820312-1.53125-10.761719-4.550781zm0 0" fill="#d55f05"/></svg>